<?xml version="1.0" encoding="utf-8"?>
<!-- Generator: Adobe Illustrator 16.0.0, SVG Export Plug-In . SVG Version: 6.00 Build 0)  -->
<!DOCTYPE svg PUBLIC "-//W3C//DTD SVG 1.1//EN" "http://www.w3.org/Graphics/SVG/1.1/DTD/svg11.dtd">
<svg version="1.1" id="Layer_1" xmlns="http://www.w3.org/2000/svg" xmlns:xlink="http://www.w3.org/1999/xlink" x="0px" y="0px"
	 width="15px" height="25px" viewBox="0 0 15 25" enable-background="new 0 0 15 25" xml:space="preserve">
<title>icon gio hang</title>
<path fill="#FFFFFF" d="M14.01,6.737l-1.094-1.785c-0.775-1.283-0.666-1.283-1.64-1.283h-0.583C10.41,1.865,8.72,0.632,6.916,0.915
	C5.498,1.137,4.384,2.25,4.162,3.669H1.88c-0.552,0-1,0.448-1,1v16.675c0,0.826,3.296,2.66,3.296,2.66
	c0.122,0.079,0.263,0.121,0.408,0.121h8.787c0.414,0,0.75-0.336,0.75-0.75V7.129C14.121,6.991,14.082,6.855,14.01,6.737z
	 M7.427,1.875C8.504,1.878,9.436,2.621,9.68,3.669H5.175C5.419,2.621,6.352,1.878,7.427,1.875z M11.276,4.706v16.638H1.88V4.669
	h9.397L11.276,4.706z M9.347,11.363c0.104,0.104,0.104,0.274,0,0.378l-5.511,5.519c-0.104,0.104-0.274,0.104-0.378,0
	c-0.104-0.104-0.104-0.274,0-0.378l5.511-5.52C9.073,11.259,9.242,11.259,9.347,11.363L9.347,11.363 M3.658,15.456
	c-0.104,0.104-0.273,0.104-0.378-0.001c-0.104-0.104-0.104-0.273,0-0.377l0,0l4.718-4.726c0.106-0.103,0.275-0.101,0.378,0.005
	c0.101,0.104,0.101,0.27-0.001,0.374L3.658,15.456 M3.348,13.826c-0.147,0-0.267-0.121-0.267-0.268c0-0.071,0.028-0.139,0.078-0.188
	l0.78-0.781l-0.664-0.665c-0.104-0.104-0.104-0.273,0-0.378c0.104-0.104,0.273-0.104,0.378,0l0,0l0.663,0.665l0.613-0.614
	l-0.749-0.75c-0.103-0.106-0.1-0.275,0.007-0.378c0.104-0.1,0.267-0.1,0.371,0l0.75,0.751l0.835-0.836
	c0.103-0.105,0.272-0.107,0.378-0.004s0.107,0.272,0.004,0.378c-0.001,0.001-0.003,0.003-0.004,0.004l-2.983,2.987
	C3.487,13.799,3.418,13.826,3.348,13.826 M6.052,9.511c-0.104-0.104-0.104-0.273,0-0.378L7.7,7.482c0.104-0.104,0.273-0.104,0.378,0
	c0.104,0.104,0.104,0.274,0,0.378l0,0L6.43,9.511C6.326,9.615,6.157,9.615,6.052,9.511C6.053,9.511,6.053,9.511,6.052,9.511
	 M9.405,13.248c0.104,0.105,0.104,0.274,0,0.379l-4.753,4.76c-0.104,0.104-0.273,0.104-0.378,0c-0.104-0.104-0.104-0.273,0-0.378
	l4.752-4.761C9.132,13.145,9.301,13.145,9.405,13.248C9.405,13.248,9.405,13.248,9.405,13.248 M9.38,15.269
	c0.104,0.104,0.104,0.274,0,0.378l-0.694,0.696l0.691,0.692c0.104,0.104,0.105,0.273,0,0.379c-0.104,0.104-0.273,0.104-0.377,0
	l-0.692-0.693l-0.593,0.594l0.662,0.662c0.104,0.104,0.104,0.273,0,0.379c-0.104,0.104-0.273,0.104-0.378,0l-0.662-0.662l-0.78,0.78
	c-0.105,0.103-0.275,0.101-0.378-0.005c-0.101-0.104-0.101-0.27,0-0.373l0.924-0.926c0.011-0.019,0.024-0.035,0.039-0.051
	c0.015-0.015,0.032-0.027,0.05-0.038l0.883-0.884c0.021-0.037,0.052-0.066,0.088-0.088l0.84-0.841
	C9.107,15.164,9.275,15.164,9.38,15.269C9.381,15.268,9.381,15.268,9.38,15.269 M4.714,7.926c-0.104-0.104-0.104-0.274,0-0.378
	c0.104-0.104,0.274-0.104,0.378,0l0.862,0.863c0.104,0.104,0.104,0.273,0,0.378c-0.104,0.104-0.273,0.105-0.378,0l0,0L4.714,7.926z
	 M6.099,7.926c-0.104-0.104-0.104-0.273,0-0.378c0.104-0.104,0.273-0.105,0.378,0l0.177,0.177c0.104,0.104,0.104,0.273,0,0.378
	c-0.104,0.104-0.274,0.104-0.378,0L6.099,7.926z"/>
<rect x="2.667" y="5.542" fill="#FFFFFF" width="7.758" height="14.99"/>
</svg>
